{"title":"Stranded.2001.FS.DVDRip.XviD-NGP","uid":7112709,"size":1005167484,"categoryP":"video","categoryS":"movies","magnet":"?xt=urn:btih:76cd17035ae1ca3651f2c372b0e0bbf892125513&amp;dn=Stranded.2001.FS.DVDRip.XviD-NGP&amp;tr=udp%3A%2F%2Ftracker.openbittorrent.com%3A80&amp;tr=udp%3A%2F%2Fopen.demonii.com%3A1337&amp;tr=udp%3A%2F%2Ftracker.coppersurfer.tk%3A6969&amp;tr=udp%3A%2F%2Fexodus.desync.com%3A6969","seeders":2,"leechers":1,"uploader":"TvTeam","files":5,"time":1332116238,"description":". \n &lt;a href=&quot;\nhttp://www.torrenting.com&quot; rel=&quot;nofollow&quot; target=&quot;_NEW&quot;&gt;\nhttp://www.torrenting.com&lt;/a&gt;          :     Once &amp; For all ;)\n\n\n               www . Torrenting . Com \n\n(((((((((((((= Enjoy No RAR releases =))))))))))))))))))))\n\n\n...................................NFO:....................................\n\n.Stranded.2001.FS.DVDRip.XviD-NGP\n &lt;a href=&quot;\nhttp://www.imdb.com/title/tt0283015/&quot; rel=&quot;nofollow&quot; target=&quot;_NEW&quot;&gt;\nhttp://www.imdb.com/title/tt0283015/&lt;/a&gt;\n\nA team of astronauts on the first mission to Mars crashes onto the surface, \nlosing contact with Earth. With no other recourse, and help millions of miles \naway, the crew is forced to make desperate choices in order to stay alive. \nWill they be able to survive as the minutes slip away? \n\nVideo: 640x480 Xvid @ 1100kbps\nAudio: MP3 Stereo @ 128kbps\nLanguage: English\nAspect: 4:3 (Fullscreen)\n\nFormat                           : AVI\nFormat/Info                      : Audio Video Interleave\nFile size                        : 946 MiB\nDuration                         : 1h 38mn\nOverall bit rate                 : 1 340 Kbps\n\nVideo\nID                               : 0\nFormat                           : MPEG-4 Visual\nFormat profile                   : Simple@L3\nFormat settings, BVOP            : No\nFormat settings, QPel            : No\nFormat settings, GMC             : No warppoints\nFormat settings, Matrix          : Default (H.263)\nCodec ID                         : XVID\nCodec ID/Hint                    : XviD\nDuration                         : 1h 38mn\nBit rate                         : 1 199 Kbps\nWidth                            : 640 pixels\nHeight                           : 480 pixels\nDisplay aspect ratio             : 4:3\nFrame rate                       : 29.970 fps\nColor space                      : YUV\nChroma subsampling               : 4:2:0\nBit depth                        : 8 bits\nScan type                        : Progressive\nBits/(Pixel*Frame)               : 0.130\nStream size                      : 846 MiB (89%)\nWriting library                  : Magic0432\n\nAudio\nID                               : 1\nFormat                           : MPEG Audio\nFormat version                   : Version 1\nFormat profile                   : Layer 3\nMode                             : Joint stereo\nMode extension                   : MS Stereo\nCodec ID                         : 55\nCodec ID/Hint                    : MP3\nDuration                         : 1h 38mn\nBit rate mode                    : Constant\nBit rate                         : 128 Kbps\nChannel(s)                       : 2 channels\nSampling rate                    : 44.1 KHz\nStream size                      : 90.3 MiB (10%)\nAlignment                        : Aligned on interleaves\nInterleave, duration             : 26 ms (0.78 video frame)\n\nNote: Movie starts in widecreen and switches to full screen,\nthis is the only version I could find and the rip is not that good\nbut watchable. There should be a widescreen edition out there but \nhave not found it yet... :(","torrent":{"xt":"urn:btih:76cd17035ae1ca3651f2c372b0e0bbf892125513","amp;dn":"Stranded.2001.FS.DVDRip.XviD-NGP","amp;tr":["udp%3A%2F%2Ftracker.openbittorrent.com%3A80","udp%3A%2F%2Fopen.demonii.com%3A1337","udp%3A%2F%2Ftracker.coppersurfer.tk%3A6969","udp%3A%2F%2Fexodus.desync.com%3A6969"],"infoHash":"76cd17035ae1ca3651f2c372b0e0bbf892125513","infoHashBuffer":{"type":"Buffer","data":[118,205,23,3,90,225,202,54,81,242,195,114,176,224,187,248,146,18,85,19]},"announce":[],"urlList":[]}}